# xmcd CD database file
#
# Track frame offsets:
#	150
#	16962
#	31412
#	53575
#	67100
#	84850
#	103050
#	117312
#	135187
#	150362
#	166775
#	185612
#	199300
#	224862
#	245225
#	261450
#	279512
#	305987
#
# Disc length: 4381 seconds
#
# Revision: 2
# Processed by: cddbd v1.5.2PL0 Copyright (c) Steve Scherf et al.
# Submitted via: CDex 1.70beta2
#
DISCID=0a111b12
DTITLE=Reddog - Reddog - Reincarnation
DYEAR=1988
DGENRE=Blues
TTITLE0=reddog - angel from atlanta
TTITLE1=reddog - steady roller
TTITLE2=reddog - down, down, down
TTITLE3=reddog - juke jumper
TTITLE4=reddog - free as a breeze
TTITLE5=reddog - redneck rider
TTITLE6=reddog - shufflin' in savannah
TTITLE7=reddog - it's raining
TTITLE8=reddog - lover man
TTITLE9=reddog - soul
TTITLE10=reddog - theme from texas
TTITLE11=reddog - 44 magnum man
TTITLE12=reddog - keep me free
TTITLE13=reddog - nobody knows your name
TTITLE14=reddog - bad boy
TTITLE15=reddog - just a memory
TTITLE16=reddog - i'm a man
TTITLE17=reddog - the twilight
EXTD=ARD Line Records STCD 9.00659 YEAR: 1988
EXTT0=
EXTT1=
EXTT2=
EXTT3=
EXTT4=
EXTT5=
EXTT6=
EXTT7=
EXTT8=
EXTT9=
EXTT10=
EXTT11=
EXTT12=
EXTT13=
EXTT14=
EXTT15=
EXTT16=
EXTT17=
PLAYORDER=
